<svg width="481" height="67" viewBox="0 0 481 67" fill="none" xmlns="http://www.w3.org/2000/svg">
<path d="M32.3066 0.5C49.8705 0.500128 64.1131 14.8025 64.1133 32.4502C64.1133 50.098 49.8706 64.4012 32.3066 64.4014C14.7425 64.4014 0.5 50.0981 0.5 32.4502C0.500168 14.8025 14.7426 0.5 32.3066 0.5Z" fill="#A0A0A0" stroke="#A0A0A0"/>
<path d="M171.307 1.5C188.871 1.50013 203.113 15.8025 203.113 33.4502C203.113 51.098 188.871 65.4012 171.307 65.4014C153.743 65.4014 139.5 51.0981 139.5 33.4502C139.5 15.8025 153.743 1.5 171.307 1.5Z" fill="#E25139" stroke="#E25139"/>
<path d="M315.062 1.93945C332.626 1.93958 346.869 16.242 346.869 33.8896C346.869 51.5374 332.626 65.8407 315.062 65.8408C297.498 65.8408 283.256 51.5375 283.256 33.8896C283.256 16.2419 297.499 1.93945 315.062 1.93945Z" fill="#FCDA35" stroke="#FCDA35"/>
<path d="M448.674 0.939453C466.238 0.939582 480.48 15.242 480.48 32.8896C480.48 50.5374 466.238 64.8407 448.674 64.8408C431.11 64.8408 416.867 50.5375 416.867 32.8896C416.867 15.2419 431.11 0.939453 448.674 0.939453Z" fill="#3C7EDD" stroke="#3C7EDD"/>
</svg>
